<svg xmlns="http://www.w3.org/2000/svg" width="21" height="17" viewBox="0 0 21 17">
  <g id="Grupo_339" data-name="Grupo 339" transform="translate(-3147 -1091)">
    <rect id="Retângulo_315" data-name="Retângulo 315" width="21" height="17" transform="translate(3147 1091)" fill="none"/>
    <path id="Caminho_1179" data-name="Caminho 1179" d="M453.6,17.408a3.245,3.245,0,0,0,1.283-1.048,2.484,2.484,0,0,0,.461-1.463,3.182,3.182,0,0,0-.279-1.417,2.609,2.609,0,0,0-.765-.924,4.854,4.854,0,0,0-1.148-.631c-.325-.127-.667-.246-1.015-.353l-.122-.037V6.6l.191.021a4.126,4.126,0,0,1,.682.133,3.911,3.911,0,0,1,1.022.453,3.185,3.185,0,0,1,.766.666.221.221,0,0,0,.161.063.363.363,0,0,0,.255-.114.311.311,0,0,0,.116-.223A.628.628,0,0,0,455,7.22L455,7.212a3.185,3.185,0,0,0-1.4-.949,5.373,5.373,0,0,0-1.423-.311l-.159-.013V4.487a.35.35,0,0,0-.092-.242.284.284,0,0,0-.228-.095.335.335,0,0,0-.354.337V5.943l-.157.014a4.365,4.365,0,0,0-1.413.359A3.011,3.011,0,0,0,448.5,7.36a2.646,2.646,0,0,0-.446,1.508,2.894,2.894,0,0,0,.254,1.266,2.509,2.509,0,0,0,.707.882,4.531,4.531,0,0,0,1.08.621c.354.147.736.287,1.134.418l.119.039v5.059l-.188-.017a4.51,4.51,0,0,1-1.421-.367,4.766,4.766,0,0,1-1.559-1.127.347.347,0,0,0-.247-.115.321.321,0,0,0-.24.116.362.362,0,0,0-.114.255.291.291,0,0,0,.036.151.738.738,0,0,0,.117.152,5.959,5.959,0,0,0,1.764,1.229,4.9,4.9,0,0,0,1.69.373l.163.009v2.06a.329.329,0,0,0,.1.238.34.34,0,0,0,.479,0,.33.33,0,0,0,.1-.238V17.8l.155-.016a4.332,4.332,0,0,0,1.429-.378m-2.258-6.094-.235-.09c-.274-.106-.534-.214-.773-.321a3.349,3.349,0,0,1-1.127-.789,1.84,1.84,0,0,1-.452-1.279,1.918,1.918,0,0,1,.4-1.228,2.492,2.492,0,0,1,1.075-.758,3.823,3.823,0,0,1,.916-.223l.193-.024Zm.674.989.232.085c.255.093.5.194.727.3a3.477,3.477,0,0,1,1.17.841,2.082,2.082,0,0,1,.476,1.367,1.915,1.915,0,0,1-.41,1.214h0a2.552,2.552,0,0,1-1.082.784,3.718,3.718,0,0,1-.917.231l-.194.024Z" transform="translate(2706.426 1087.376)"/>
  </g>
</svg>
