<svg xmlns="http://www.w3.org/2000/svg" width="21" height="17" viewBox="0 0 21 17">
  <g id="Grupo_340" data-name="Grupo 340" transform="translate(-3147 -1150)">
    <rect id="Ret창ngulo_316" data-name="Ret창ngulo 316" width="21" height="17" transform="translate(3147 1150)" fill="none"/>
    <path id="Uni찾o_17" data-name="Uni찾o 17" d="M2.453,13.956l-1.955,0c-.363,0-.5-.135-.5-.5V11.375Q0,9.207,0,7.039A6.814,6.814,0,0,1,.817,3.706,6.9,6.9,0,0,1,5.764.11c.181-.035.37-.057.553-.078L6.57,0h.806l.011,0a.511.511,0,0,0,.105.02,6.573,6.573,0,0,1,2.759.8,6.9,6.9,0,0,1,3.594,4.946c.034.181.057.369.078.552.01.085.02.169.031.253v.81c0,.007,0,.015,0,.023a.75.75,0,0,0-.019.115,6.555,6.555,0,0,1-1.018,3.12A6.865,6.865,0,0,1,6.9,13.95c-.828.007-1.664.009-2.494.009C3.75,13.959,3.1,13.958,2.453,13.956ZM6.189.838A6.067,6.067,0,0,0,1.8,3.578,6.038,6.038,0,0,0,.782,7.029q0,2.053,0,4.106v2.037H3.93l2.949,0a7.231,7.231,0,0,0,.882-.054,5.992,5.992,0,0,0,3.99-2.2A5.96,5.96,0,0,0,13.116,6.2a6.011,6.011,0,0,0-2.782-4.422,5.856,5.856,0,0,0-3.285-1A6.6,6.6,0,0,0,6.189.838Zm.179,9.743a.585.585,0,0,1-.007-.833.556.556,0,0,1,.4-.169h0a.582.582,0,0,1,0,1.164H6.758A.556.556,0,0,1,6.368,10.58Zm.3-2.014-.027,0c-.157-.006-.2-.068-.225-.174a1.67,1.67,0,0,1-.031-.234l-.011-.109A1.7,1.7,0,0,1,7.1,6.635a3.4,3.4,0,0,0,.532-.48,1.164,1.164,0,0,0,.241-.487.74.74,0,0,0-.464-.88A1.477,1.477,0,0,0,6.337,4.77a1.145,1.145,0,0,0-.549.506l-.009.013a.269.269,0,0,1-.318.13c-.236-.053-.284-.171-.3-.255a.747.747,0,0,1,.023-.33,1.1,1.1,0,0,1,.5-.616,2.479,2.479,0,0,1,2.548.08,1.3,1.3,0,0,1,.4,1.677,2.784,2.784,0,0,1-.693.867l-.079.068c-.129.111-.262.225-.386.349a1.074,1.074,0,0,0-.311.707c0,.059-.006.117-.009.175s-.007.141-.013.212a.461.461,0,0,1-.01.073c-.074.119-.178.144-.34.144C6.759,8.57,6.715,8.568,6.668,8.566Z" transform="translate(3151 1151.178)" fill="#40e0d0" stroke="rgba(0,0,0,0)" stroke-miterlimit="10" stroke-width="1"/>
  </g>
</svg>
