<svg xmlns="http://www.w3.org/2000/svg" width="49" height="50" viewBox="0 0 49 50">
  <g id="Grupo_343" data-name="Grupo 343" transform="translate(-133 -496)">
    <path id="google" d="M11.574,10.147v-.054H22.445a8.649,8.649,0,0,1,.162,1.947,11.116,11.116,0,0,1-3.056,8.14A10.753,10.753,0,0,1,11.52,23.29a11.141,11.141,0,0,1-8.14-3.353A11.067,11.067,0,0,1,0,11.77,11.117,11.117,0,0,1,3.353,3.6,11.113,11.113,0,0,1,11.52.25a10.556,10.556,0,0,1,7.788,3.083L16.225,6.362a6.292,6.292,0,0,0-4.651-1.785,6.736,6.736,0,0,0-5,2.137,7.1,7.1,0,0,0-2.082,5.138,7.007,7.007,0,0,0,2.082,5.111,6.778,6.778,0,0,0,5,2.109,8.033,8.033,0,0,0,2.974-.514,5.294,5.294,0,0,0,2.028-1.325,6.915,6.915,0,0,0,1.108-1.6,7.137,7.137,0,0,0,.541-1.488H11.574Z" transform="translate(146.091 509.295)" fill="#40e0d0"/>
    <g id="Elipse_1" data-name="Elipse 1" transform="translate(133 496)" fill="none" stroke="#40e0d0" stroke-width="0.5">
      <ellipse cx="24.5" cy="25" rx="24.5" ry="25" stroke="none"/>
      <ellipse cx="24.5" cy="25" rx="24.25" ry="24.75" fill="none"/>
    </g>
  </g>
</svg>
