<svg xmlns="http://www.w3.org/2000/svg" width="21" height="17" viewBox="0 0 21 17">
  <g id="Grupo_338" data-name="Grupo 338" transform="translate(-3147 -1031)">
    <rect id="Retângulo_314" data-name="Retângulo 314" width="21" height="17" transform="translate(3147 1031)" fill="none"/>
    <path id="Caminho_1178" data-name="Caminho 1178" d="M19.01,7.528c.423-.233.882-.5,1.4-.808a.876.876,0,0,0,.331-1.238h0c-.163-.294-.336-.586-.5-.87A.421.421,0,0,0,20,4.4a.284.284,0,0,0-.223.039.325.325,0,0,0-.079.48c.173.306.33.579.482.834a.326.326,0,0,1,.053.253.31.31,0,0,1-.162.187c-.456.261-.911.524-1.351.781a.316.316,0,0,1-.244.048.324.324,0,0,1-.192-.168c-.918-1.592-1.852-3.21-2.857-4.946a.319.319,0,0,1-.049-.248.319.319,0,0,1,.166-.189c.423-.241.859-.493,1.333-.771a.332.332,0,0,1,.26-.052.327.327,0,0,1,.194.174c.127.23.266.471.45.781.118.2.289.262.458.167a.32.32,0,0,0,.091-.475c-.181-.324-.334-.588-.482-.833a.877.877,0,0,0-1.24-.332c-.468.263-.952.534-1.417.825a1.078,1.078,0,0,0-.345.358.386.386,0,0,1-.384.216h0q-.889,0-1.779,0c-.671,0-1.365,0-2.047,0h-.014a2.082,2.082,0,0,0-1.557.65l-.069.073a1.722,1.722,0,0,1-.222.209.468.468,0,0,1-.3.089C8.315,2.535,8.156,2.518,8,2.5c-.2-.021-.407-.044-.61-.053-.268-.012-.532-.009-.812-.006l-.369,0H6.137l-.019-.072A1.1,1.1,0,0,0,5.49,1.7c-.24-.131-.48-.272-.712-.407-.143-.083-.286-.167-.429-.249a.9.9,0,0,0-1.365.366l-.417.721c-.5.859-1.012,1.748-1.512,2.624-.25.437-.5.886-.737,1.321L0,6.652v.33A1.043,1.043,0,0,0,.47,7.6c.176.1.354.2.525.3.288.168.585.341.883.5a1.21,1.21,0,0,0,.321.1c.068.014.138.028.207.048l.042.012a.6.6,0,0,1,.261.121c.164.155.325.317.481.474.139.14.283.284.427.422a.5.5,0,0,1,.17.433,1.273,1.273,0,0,0,.622,1.237,2.3,2.3,0,0,0,.454.2c.08.028.162.058.246.092l.064.026,0,.069a1.378,1.378,0,0,0,.359,1.027,1.453,1.453,0,0,0,1.052.464l.087,0,0,.087A1.414,1.414,0,0,0,8.092,14.63l.086,0,.005.086c0,.023,0,.044,0,.063s0,.063.006.091a1.338,1.338,0,0,0,.85,1.147,1.26,1.26,0,0,0,1.386-.2l.1-.085a3.166,3.166,0,0,0,.956-1.143l.044-.107.1.062a1.407,1.407,0,0,0,1.257.185,1.423,1.423,0,0,0,.895-.894l.043-.106.1.06a1.424,1.424,0,0,0,1.242.122,1.493,1.493,0,0,0,.884-1.006l.025-.083.118.023.082.016a1.385,1.385,0,0,0,1.263-2.358l-.052-.054c-.142-.146-.289-.3-.44-.436-.1-.093-.205-.18-.316-.272l-.15-.125-.08-.068.074-.074.451-.45c.4-.4.783-.782,1.16-1.165a.624.624,0,0,1,.431-.207,1.015,1.015,0,0,0,.4-.13M2.6,7.707a.653.653,0,0,1-.12.14c-.017.016-.034.033-.05.05l-.049.053-.064-.031-.074-.035c-.045-.021-.084-.039-.122-.061L1.69,7.572c-.277-.161-.563-.327-.847-.486A.37.37,0,0,1,.65,6.879a.346.346,0,0,1,.056-.27C1.613,5.047,2.562,3.4,3.529,1.718a.382.382,0,0,1,.218-.2.357.357,0,0,1,.279.062c.38.227.8.469,1.277.738a.368.368,0,0,1,.191.208.348.348,0,0,1-.057.272q-.8,1.383-1.6,2.767Q3.22,6.638,2.6,7.707M5.53,10.735a.5.5,0,0,1-.243.1.374.374,0,0,0-.04.008l-.015,0H5.215a.752.752,0,0,1-.735-.43.706.706,0,0,1,.1-.8,4.374,4.374,0,0,1,.459-.46.749.749,0,0,1,.956,0,.707.707,0,0,1,.168.943,3.9,3.9,0,0,1-.6.609ZM7.021,12.3a.706.706,0,0,1-.471.178.755.755,0,0,1-.52-.212.731.731,0,0,1-.08-.991,7.535,7.535,0,0,1,.736-.734.755.755,0,0,1,.28-.136c.04-.013.079-.026.114-.04l.023-.01.025,0a.8.8,0,0,1,.682.453.688.688,0,0,1-.1.8,8.392,8.392,0,0,1-.691.691m1.572,1.463a.785.785,0,0,1-.54.223.753.753,0,0,1-.519-1.29c.23-.24.421-.43.6-.6a.718.718,0,0,1,.81-.137.77.77,0,0,1,.455.778v.025l-.012.023c-.01.018-.02.043-.032.071a1.26,1.26,0,0,1-.178.313,6.522,6.522,0,0,1-.525.536Zm2.132.883a7.361,7.361,0,0,1-.665.661,1.03,1.03,0,0,1-.3.162c-.045.018-.088.035-.128.054l-.026.012-.029,0a.825.825,0,0,1-.681-.467.691.691,0,0,1,.1-.8,8.437,8.437,0,0,1,.676-.677.748.748,0,0,1,1.053,1.057m6.328-3.729a.8.8,0,0,1,.258.774.733.733,0,0,1-.455.524.752.752,0,0,1-.706-.086,1.489,1.489,0,0,1-.193-.172l-.017-.017-2.55-2.55L12.2,8.205a1.185,1.185,0,0,0-.1-.092.31.31,0,0,0-.429.014.317.317,0,0,0-.008.431,1.423,1.423,0,0,0,.1.105l.036.036.8.8q1.264,1.265,2.53,2.528a.769.769,0,0,1,.261.752.748.748,0,0,1-1.22.416c-.044-.037-.084-.077-.122-.116l-.032-.033L9.99,9.015A1.123,1.123,0,0,0,9.87,8.9a.311.311,0,0,0-.416.025.317.317,0,0,0-.016.417,1.132,1.132,0,0,0,.1.106l.661.662q1.351,1.353,2.7,2.7a.817.817,0,0,1,.291.676.714.714,0,0,1-.466.628.824.824,0,0,1-.3.061.71.71,0,0,1-.488-.2c-.216-.2-.4-.38-.56-.557a1.617,1.617,0,0,0-1.22-.646h-.085l-.017-.076c-.234-1.037-.476-1.281-1.436-1.45l-.066-.012-.012-.066C8.35,10.166,7.975,9.82,7,9.751l-.078-.005-.011-.078A1.375,1.375,0,0,0,5.793,8.387a1.527,1.527,0,0,0-1.579.7l-.068.081L3.1,8.116l.4-.688.992-1.719.382-.662C5.2,4.465,5.551,3.863,5.89,3.27a.348.348,0,0,1,.342-.2c.289.005.583,0,.868,0h.468c.064,0,.127,0,.206.01l.134.009.212.012-.149.152-.179.181c-.112.113-.219.22-.318.327a1.38,1.38,0,0,0-.309,1.366,1.364,1.364,0,0,0,1.029.926,1.335,1.335,0,0,0,1.286-.391c.248-.248.5-.5.745-.747l.4-.4.068.059.046.039c.031.026.061.051.089.079L12.6,6.471q2.226,2.226,4.454,4.451m.622-3.438c-.375.369-.753.749-1.118,1.116l-.381.383-.068.069-3.126-3.13.121-.108.109-.1A2.221,2.221,0,0,0,13.96,4.1a.377.377,0,0,0-.1-.279.294.294,0,0,0-.217-.09h0c-.18,0-.3.139-.315.355a1.63,1.63,0,0,1-.77,1.336l-.064.043-.11-.1c-.039-.036-.077-.071-.113-.107L11.7,4.679l-.749-.749c-.247-.247-.374-.248-.617-.006l-.612.611-.64.639a.9.9,0,0,1-.625.284h0a.71.71,0,0,1-.51-.22.757.757,0,0,1,.063-1.12l.665-.666q.424-.423.847-.848A1.45,1.45,0,0,1,10.6,2.157h0c1.306,0,2.655,0,4.011,0h0a.353.353,0,0,1,.341.195c1,1.744,2,3.465,2.753,4.77a.261.261,0,0,1-.035.364" transform="translate(3147 1031.69)" fill="#40e0d0"/>
  </g>
</svg>
