<svg xmlns="http://www.w3.org/2000/svg" width="21" height="17" viewBox="0 0 21 17">
  <g id="Grupo_341" data-name="Grupo 341" transform="translate(-3147 -1210)">
    <rect id="Retângulo_317" data-name="Retângulo 317" width="21" height="17" transform="translate(3147 1210)" fill="none"/>
    <path id="Caminho_1183" data-name="Caminho 1183" d="M1036.474,22.684a4.586,4.586,0,0,0-4.419.338c-.214.141-.411.3-.62.473-.1.08-.2.16-.3.238l-.082.064-.1-.095-.078-.075a4.667,4.667,0,0,0-7.807,2.148c-.045.177-.077.362-.108.542-.014.082-.029.165-.044.247v.719l.006.022a.65.65,0,0,1,.021.1,5.413,5.413,0,0,0,.41,1.553,10.5,10.5,0,0,0,2.032,3.044,26.026,26.026,0,0,0,5.353,4.385.582.582,0,0,0,.719-.008,27.693,27.693,0,0,0,4.635-3.651,12.83,12.83,0,0,0,2.437-3.161,5.386,5.386,0,0,0,.665-3.354,4.614,4.614,0,0,0-2.721-3.533m1.98,4.105c0,.029,0,.055.006.077v.011a5.217,5.217,0,0,1-.787,2.622,13.4,13.4,0,0,1-2.61,3.116,28.506,28.506,0,0,1-3.8,2.938.331.331,0,0,1-.182.069.268.268,0,0,1-.15-.05,24.972,24.972,0,0,1-5.242-4.416,8.7,8.7,0,0,1-1.7-2.725,3.938,3.938,0,0,1,1-4.366,3.884,3.884,0,0,1,5.7.556.789.789,0,0,0,.291.242c.194.085.358-.064.462-.2a3.873,3.873,0,0,1,6.981,1.858c.011.1.018.195.024.272" transform="translate(2126.082 1188.641)" fill="#40e0d0"/>
  </g>
</svg>
