<svg xmlns="http://www.w3.org/2000/svg" xmlns:xlink="http://www.w3.org/1999/xlink" width="31" height="30" viewBox="0 0 31 30">
  <defs>
    <clipPath id="clip-path">
      <rect id="Ret창ngulo_324" data-name="Ret창ngulo 324" width="22.515" height="19.327" fill="#40e0d0"/>
    </clipPath>
  </defs>
  <g id="Grupo_348" data-name="Grupo 348" transform="translate(-3961 -1919)">
    <rect id="Ret창ngulo_336" data-name="Ret창ngulo 336" width="31" height="30" transform="translate(3961 1919)" fill="none"/>
    <g id="Grupo_343" data-name="Grupo 343" transform="translate(3965 1924)">
      <g id="Grupo_338" data-name="Grupo 338" clip-path="url(#clip-path)">
        <path id="Caminho_1188" data-name="Caminho 1188" d="M2.1,10.148A2.283,2.283,0,0,1,.065,8.374,2.128,2.128,0,0,1,.2,6.953Q1.6,3.8,3.006.65A1.013,1.013,0,0,1,4.019,0q7.244.007,14.488,0a1.025,1.025,0,0,1,1.022.672c.917,2.065,1.842,4.127,2.757,6.192a2.265,2.265,0,0,1-1.752,3.258c-.023,0-.046.011-.105.026,0,.093,0,.194,0,.294q0,4.1,0,8.2c0,.529-.151.682-.683.682H2.775c-.532,0-.682-.151-.682-.683q0-4.089,0-8.178c0-.1,0-.2,0-.319M4.624,9.2c-.073.079-.121.13-.168.182a2.12,2.12,0,0,1-1.1.675c-.226.052-.284.14-.283.364.01,2.535.008,5.069.009,7.6v.3H5.154v-.308q0-2.8,0-5.6a1.991,1.991,0,0,1,0-.239.481.481,0,0,1,.489-.461q2.044-.006,4.088,0a.455.455,0,0,1,.472.466c.007.1,0,.191,0,.287q0,2.8,0,5.6c0,.17.009.282.235.282q4.375-.009,8.75,0c.181,0,.248-.05.248-.244q-.007-3.885,0-7.771c0-.174-.067-.232-.223-.266a2.188,2.188,0,0,1-1.169-.7,1.486,1.486,0,0,1-.107-.147c-.057.013-.067.012-.072.017l-.147.156a2.165,2.165,0,0,1-1.579.733q-.418.01-.837,0a2.182,2.182,0,0,1-1.631-.778c-.05-.056-.1-.111-.153-.167a3.1,3.1,0,0,1-4.562,0,2.489,2.489,0,0,1-2.142.966A2.514,2.514,0,0,1,4.624,9.2m6.618.032.014-.057c.08,0,.159,0,.239,0A1.578,1.578,0,0,0,13.063,7.3c-.135-1.04-.234-2.085-.349-3.128-.112-1.019-.221-2.038-.342-3.055A.247.247,0,0,0,12.2.953C11.579.94,10.958.945,10.336.944c-.126,0-.186.051-.193.184-.01.19-.037.379-.059.569q-.159,1.409-.318,2.818c-.106.948-.2,1.9-.317,2.843a1.553,1.553,0,0,0,.836,1.627,5.493,5.493,0,0,0,.957.246M14.437.943h-.765c-.338,0-.351.023-.312.352q.19,1.6.371,3.2c.133,1.185.257,2.37.393,3.554a1.263,1.263,0,0,0,1.1,1.1,4.462,4.462,0,0,0,.857.024,1.286,1.286,0,0,0,1.215-1.686c-.575-2.115-1.171-4.224-1.752-6.337a.232.232,0,0,0-.268-.2c-.279.006-.557,0-.836,0m-6.345,0c-.207,0-.414,0-.621,0-.5,0-.419-.037-.54.4-.036.13-.076.259-.112.389-.536,1.944-1.079,3.886-1.6,5.833A1.257,1.257,0,0,0,6.3,9.145a4.466,4.466,0,0,0,.834.023A1.284,1.284,0,0,0,8.4,8.073c.115-.874.2-1.753.3-2.629q.135-1.2.27-2.392c.07-.624.137-1.247.21-1.871C9.2,1,9.132.935,8.953.941c-.286.009-.573,0-.86,0m8.4.025c.093.336.173.625.253.915q.868,3.122,1.736,6.245a1.275,1.275,0,0,0,1.009,1,2.848,2.848,0,0,0,.855.024A1.276,1.276,0,0,0,21.413,7.3c-.9-2.054-1.817-4.1-2.722-6.156a.305.305,0,0,0-.329-.205c-.534.007-1.068,0-1.6,0-.076,0-.153.013-.268.024m-10.46,0C5.92.959,5.844.945,5.768.944c-.534,0-1.068,0-1.6,0a.319.319,0,0,0-.341.224c-.9,2.038-1.806,4.072-2.7,6.11a1.287,1.287,0,0,0,1.1,1.889,1.505,1.505,0,0,0,1.89-1.257c.373-1.47.807-2.925,1.214-4.387.232-.833.464-1.667.708-2.547m.116,17.341a.685.685,0,0,0,.146.035c.924,0,1.848,0,2.773,0,.161,0,.177-.09.177-.216q0-2.606.007-5.211c0-.181-.064-.227-.238-.226-.884.008-1.769,0-2.653,0-.068,0-.136.012-.212.019Z" transform="translate(0 0)"/>
        <path id="Caminho_1189" data-name="Caminho 1189" d="M132.613,128.973c.725,0,1.45,0,2.175,0a.513.513,0,0,1,.584.587q0,1.936,0,3.872c0,.411-.187.593-.6.593q-2.187,0-4.373,0c-.431,0-.6-.163-.6-.586q0-1.948,0-3.9c0-.4.171-.569.565-.57.749,0,1.5,0,2.246,0m1.76,1H130.8v3.061h3.571Z" transform="translate(-118.003 -117.251)" />
      </g>
    </g>
  </g>
</svg>
