<svg xmlns="http://www.w3.org/2000/svg" width="31" height="30" viewBox="0 0 31 30">
  <g id="Grupo_347" data-name="Grupo 347" transform="translate(-4024 -1919)">
    <rect id="Ret창ngulo_337" data-name="Ret창ngulo 337" width="31" height="30" transform="translate(4024 1919)" fill="none"/>
    <path id="Uni찾o_18" data-name="Uni찾o 18" d="M7.653,21.758a.5.5,0,0,1-.006-1.006l1.128.008-.023-6.639a2.324,2.324,0,0,1-.688-.277c-1.595-.815-2.793-1.488-3.89-2.186a17.414,17.414,0,0,1-1.832-1.344A7.725,7.725,0,0,1,.769,8.567a4.951,4.951,0,0,1-.757-2.32A6.508,6.508,0,0,1,.047,5.065l.018-.176A.644.644,0,0,1,.091,4.8.5.5,0,0,1,.12,4.7l0-.005A.508.508,0,0,1,.581,4.41l8.457.06a.511.511,0,0,1-.008,1.021L1.021,5.436a5.791,5.791,0,0,0-.005.751,3.946,3.946,0,0,0,.608,1.849A6.825,6.825,0,0,0,3,9.555a16.772,16.772,0,0,0,1.722,1.26c1.064.677,2.24,1.337,3.814,2.142l.039.021a1.251,1.251,0,0,0,1.14.117l1.513-.76c1.105-.585,2.023-1.078,2.919-1.662a11.063,11.063,0,0,0,2.486-2.083l.023-.026a5.673,5.673,0,0,0,.445-.64.906.906,0,0,0,.077-.155c.022-.049.043-.1.067-.144s.046-.1.07-.15a.53.53,0,0,0,.069-.173,3.8,3.8,0,0,0,.177-.726.364.364,0,0,1,.007-.056,4.1,4.1,0,0,0,.042-.755.5.5,0,1,1,1.007.006,4.974,4.974,0,0,1-.057.915,5.224,5.224,0,0,1-.208.887,1.83,1.83,0,0,1-.137.348c-.017.034-.034.068-.049.1a.338.338,0,0,1-.019.041,2.926,2.926,0,0,1-.223.434,5.458,5.458,0,0,1-.528.743,11.979,11.979,0,0,1-2.7,2.272c-.932.608-1.87,1.113-3.009,1.715L10.148,14a2.062,2.062,0,0,1-.39.129l.023,6.636,1.123.008a.5.5,0,0,1,.006,1.006ZM9.114,12.18a.425.425,0,0,1-.1-.04L4.694,9.675A.413.413,0,0,1,4.9,8.9l8.028.046L11.067,5.386,9.006,1.44c-.015-.031-.022-.042-.028-.054a.872.872,0,0,1-.1-.226A.63.63,0,0,1,8.9.85.573.573,0,0,1,9.2.51,5.155,5.155,0,0,1,12.687.154a.222.222,0,0,1,.032.01.83.83,0,0,1,.187.058.418.418,0,0,1,.086.017,5.167,5.167,0,0,1,3.047,2.548l0,0v0A5.173,5.173,0,0,1,16.4,6.74v.01a5.178,5.178,0,0,1-2.419,2.972.2.2,0,0,0-.017.011l-.094.05-.019.01h0L9.417,12.146a.413.413,0,0,1-.3.034Zm.115-.869,2.9-1.54L6.472,9.738Zm4.59-2.48a4.335,4.335,0,0,0,1.625-1.942L12.287,5.9ZM12.54,5.094l3.157.99a4.339,4.339,0,0,0-.224-2.522Zm-.391-.748,2.932-1.532A4.334,4.334,0,0,0,13.14,1.188ZM9.812,1.161l1.533,2.932L12.334.938a4.282,4.282,0,0,0-.886-.092A4.388,4.388,0,0,0,9.812,1.161Z" transform="translate(4030 1923)" stroke="rgba(0,0,0,0)" stroke-miterlimit="10" stroke-width="1"/>
  </g>
</svg>
