<svg xmlns="http://www.w3.org/2000/svg" xmlns:xlink="http://www.w3.org/1999/xlink" width="31" height="30" viewBox="0 0 31 30">
  <defs>
    <clipPath id="clip-path">
      <rect id="Ret창ngulo_314" data-name="Ret창ngulo 314" width="18.741" height="17.181" fill="#40e0d0"/>
    </clipPath>
  </defs>
  <g id="Grupo_346" data-name="Grupo 346" transform="translate(-4103 -1919)">
    <rect id="Ret창ngulo_338" data-name="Ret창ngulo 338" width="31" height="30" transform="translate(4103 1919)" fill="none"/>
    <g id="Grupo_344" data-name="Grupo 344" transform="translate(4109 1925)">
      <g id="Grupo_334" data-name="Grupo 334" clip-path="url(#clip-path)">
        <path id="Caminho_1180" data-name="Caminho 1180" d="M13.126,16.609a8.4,8.4,0,0,0,4.523-3.866,8.481,8.481,0,0,0,.914-5.874,8.651,8.651,0,0,0-16.95.1c-.06.305-.1.61-.138.934-.018.15-.037.3-.059.455l-.015.1H1.074c-.162,0-.325,0-.488,0a.583.583,0,0,0-.518.278.563.563,0,0,0,.018.567C.6,10.223,1.127,11.129,1.642,12a.56.56,0,0,0,.483.3h0a.565.565,0,0,0,.487-.3c.567-.96,1.075-1.841,1.555-2.693a.557.557,0,0,0,.017-.562.594.594,0,0,0-.522-.279c-.214,0-.428,0-.665,0H2.5l.02-.139c.023-.161.044-.319.064-.475.044-.338.085-.658.152-.979A7.393,7.393,0,0,1,6,2.185a7.39,7.39,0,0,1,5.6-1.065,7.533,7.533,0,0,1,5.909,8.718A7.534,7.534,0,0,1,5.067,14.131l-.042-.037-.052-.046a.638.638,0,0,0-.413-.163.531.531,0,0,0-.4.183.545.545,0,0,0-.142.4.6.6,0,0,0,.215.409,8.479,8.479,0,0,0,8.895,1.734" transform="translate(0.001 0)"/>
        <path id="Caminho_1181" data-name="Caminho 1181" d="M109.083,38.379c.485.381.974.774,1.447,1.154l.606.486.357.287c.288.232.586.473.884.7a.588.588,0,0,0,.57.1.538.538,0,0,0,.335-.42.573.573,0,0,0-.258-.582l-1.15-.919c-.577-.462-1.174-.94-1.763-1.408a.5.5,0,0,1-.208-.431c.005-1.623,0-3.274,0-4.87v-.6a1.029,1.029,0,0,0-.015-.222.563.563,0,0,0-.543-.437.541.541,0,0,0-.064,0,.552.552,0,0,0-.489.565q0,1.078,0,2.157v.873q0,.418,0,.836c0,.692,0,1.407,0,2.111a.712.712,0,0,0,.292.615" transform="translate(-99.975 -28.688)" />
      </g>
    </g>
  </g>
</svg>
