<svg xmlns="http://www.w3.org/2000/svg" width="31" height="30" viewBox="0 0 31 30">
  <g id="Grupo_345" data-name="Grupo 345" transform="translate(-4149 -1919)">
    <rect id="Retângulo_339" data-name="Retângulo 339" width="31" height="30" transform="translate(4149 1919)" fill="none"/>
    <path id="Caminho_1196" data-name="Caminho 1196" d="M168.525,20.678h0c-.285-.272-.579-.544-.9-.832s-.632-.58-.937-.864c-.5-.47-1.022-.956-1.56-1.406-.187-.157-.361-.331-.529-.5l-.01-.01c-.115-.115-.233-.234-.353-.344q-.643-.59-1.288-1.177l-.062-.056c-.8-.728-1.623-1.48-2.429-2.23a2.169,2.169,0,0,0-.932-.561,1.78,1.78,0,0,0-1.719.336c-.67.587-1.332,1.206-1.973,1.805q-.411.384-.821.765l-.39.356q-.43.392-.859.785l-.235.216q-2,1.842-4,3.686a.565.565,0,0,0-.1.805c.213.265.447.285.784.067a3.371,3.371,0,0,0,.519-.446l.012-.011.139-.136.051-.051a.789.789,0,0,1,.287-.211l.195-.076v1.755q0,3.525,0,7.049v.036a2.317,2.317,0,0,0,.02.378,1.959,1.959,0,0,0,2,1.7c3.053,0,6.073,0,9.422,0H164.6a1.964,1.964,0,0,0,.346-.023A1.986,1.986,0,0,0,166.6,29.32l0-.094c0-.059,0-.117,0-.176V27.268q0-3.12,0-6.24c0-.011,0-.023,0-.035a.4.4,0,0,1,.062-.287l.094-.131.2.185c.059.053.115.1.169.156l.125.123.014.014a4.527,4.527,0,0,0,.544.484.519.519,0,0,0,.78-.111.526.526,0,0,0-.074-.747m-8.042,9.631a.334.334,0,0,1-.248.079c-.879-.007-1.676-.007-2.438,0h-.01a.336.336,0,0,1-.248-.081.344.344,0,0,1-.081-.259c.005-.581,0-1.172,0-1.743l0-1.323c0-.551,0-1.121,0-1.682a1.439,1.439,0,0,1,1.055-1.43,1.609,1.609,0,0,1,1.786.574,1.462,1.462,0,0,1,.257.848q0,.926,0,1.852v.206q0,1.356,0,2.712a.334.334,0,0,1-.081.248m5-10.624h0c0,.016,0,.032,0,.047v8.042c0,.027,0,.053,0,.079l0,.046v.267q0,.65-.005,1.3a.84.84,0,0,1-.92.917h-.995c-.5,0-1.022,0-1.532,0a.369.369,0,0,1-.275-.085.373.373,0,0,1-.086-.279c.006-1.528.007-3.066,0-4.7a2.677,2.677,0,0,0-2.125-2.62,2.678,2.678,0,0,0-3.213,2.561c-.011,1.583-.006,3.2,0,4.724a.412.412,0,0,1-.093.312.388.388,0,0,1-.279.09h-.02c-.553-.009-1.118-.008-1.664-.007h-.773a.857.857,0,0,1-.977-.972V27.184c0-2.4,0-4.873-.013-7.309a.963.963,0,0,1,.358-.8c.688-.622,1.38-1.263,2.05-1.883l.666-.616c.033-.031.064-.063.1-.1l.052-.055,2.4-2.2c.088-.081.176-.162.265-.241a.836.836,0,0,1,1.214.009q1.444,1.328,2.885,2.659l1.578,1.456q.627.579,1.256,1.157a.34.34,0,0,1,.139.405c0,.005,0,.011,0,.016" transform="translate(4005.698 1912.387)"/>
  </g>
</svg>
